<svg xmlns="http://www.w3.org/2000/svg" viewBox="0 0 1500 1500">
  <defs>
    <style>
      circle,path{fill:gray}
    </style>
  </defs>
  <circle cx="179.53" cy="482.13" r="12.91"/>
  <circle cx="313.79" cy="350.46" r="12.91"/>
  <circle cx="316.37" cy="449.86" r="12.91"/>
  <circle cx="462.24" cy="1064.34" r="12.91"/>
  <circle cx="605.54" cy="275.58" r="12.91"/>
  <circle cx="568.1" cy="337.55" r="12.91"/>
  <circle cx="630.06" cy="611.23" r="12.91"/>
  <circle cx="422.23" cy="1414.18" r="12.91"/>
  <circle cx="569.39" cy="1414.18" r="12.91"/>
  <circle cx="591.34" cy="1127.6" r="12.91"/>
  <circle cx="868.89" cy="1263.14" r="12.91"/>
  <circle cx="911.49" cy="1347.05" r="12.91"/>
  <circle cx="790.14" cy="1427.09" r="12.91"/>
  <circle cx="1043.16" cy="1414.18" r="12.91"/>
  <circle cx="1036.71" cy="1318.65" r="12.91"/>
  <circle cx="1094.8" cy="1344.47" r="12.91"/>
  <circle cx="1139.98" cy="1307.03" r="12.91"/>
  <circle cx="803.05" cy="767.43" r="12.91"/>
  <circle cx="716.56" cy="714.5" r="12.91"/>
  <circle cx="742.38" cy="207.17" r="12.91"/>
  <circle cx="1209.69" cy="72.91" r="12.91"/>
  <circle cx="1134.82" cy="249.77" r="12.91"/>
  <circle cx="1218.73" cy="207.17" r="12.91"/>
  <circle cx="1059.94" cy="420.17" r="12.91"/>
  <circle cx="1154.18" cy="371.11" r="12.91"/>
  <circle cx="991.52" cy="555.72" r="12.91"/>
  <circle cx="1084.47" cy="523.44" r="12.91"/>
  <circle cx="898.58" cy="675.77" r="12.91"/>
  <circle cx="994.11" cy="658.99" r="12.91"/>
  <circle cx="1137.4" cy="859.08" r="12.91"/>
  <path d="M184.78 472.81l-6.37-1.07c6.33-37.69 18.34-63.08 38.94-82.33 18.24-17.05 46-30.94 74.24-37.16l1.38 6.3c-27.16 6-53.78 19.28-71.22 35.58-19.49 18.21-30.89 42.48-36.97 78.68zm1.28 8.64l-4.2-4.9c10-8.63 26.24-12.43 38.07-15.2a303.23 303.23 0 0165.6-8.58c2.69-.06 5.48-.1 8.29-.1v6.45c-2.77 0-5.51 0-8.15.1a296.58 296.58 0 00-64.27 8.42c-11.17 2.62-26.49 6.2-35.34 13.81zM321 347.73l-5.71-3c16-30.24 31.71-51.5 60.88-64 28.16-12.12 58.31-18 92.16-18h.06c15.41 0 43.49 4.47 57 6.61 6.49 1 12.21 2.25 17.73 3.43 12.59 2.67 23.45 5 37.36 3.56l.65 6.43c-14.91 1.51-26.23-.89-39.35-3.68-5.44-1.16-11.08-2.36-17.41-3.36-13.33-2.12-41.07-6.53-56-6.53h-.06c-33 0-62.27 5.71-89.61 17.48s-42.38 32.07-57.7 61.06zm266.12-35.2l-5.77-2.89c4.72-9.45 10.58-16.91 17.36-25.55l2.68-3.42 5.09 4-2.69 3.44c-6.79 8.68-12.24 15.56-16.67 24.42zm-146.35 734.59c-25.85-26.91-32.92-37.55-39.16-46.94l-2.07-3.1c-17-25.15-38.76-59.36-56.94-101-19.84-45.4-31.37-90.15-35.26-136.81-2.71-32.53.52-87.7 3.35-116.84 1.25-12.92 2.84-25.41 4.38-37.48 5.66-44.48 11-86.5-.47-144.75l6.33-1.25c11.68 59.28 6.27 101.8.54 146.82-1.53 12-3.11 24.46-4.36 37.28-2.7 27.81-6 83.81-3.33 115.69 8.39 100.72 53.1 178.34 91.11 234.7.71 1 1.4 2.09 2.1 3.14 6.09 9.16 13 19.55 38.44 46zm5.68 348.14l-2.68-5.87c4.26-2 8.9-3.85 13.38-5.69 8.36-3.43 21-8.61 22.11-11.38 3.49-8.7 12.62-53.64 10.1-87.64-3.73-50.39-9.19-83.5-15.51-121.84-4.39-26.64-8.93-54.18-13.4-90.72l6.41-.78c4.45 36.4 9 63.88 13.36 90.45 6.08 36.89 11.83 71.73 15.58 122.42 2.63 35.54-6.81 81.17-10.55 90.51-2 5-11.07 9-25.65 15-4.43 1.77-9 3.65-13.15 5.54zm45.84 31.01c-5.78 0-11.7-.16-17.94-.47-15.22-.76-27.8-1.87-34-2.47-16.36-1.58-16.53-1.88-17.46-3.6l-.87-1.59.91-1.59 2.79 1.61 3-1.2a3.07 3.07 0 00-1.84-1.76c2.22.62 23.66 2.94 47.76 4.15a295.61 295.61 0 0065.58-3.54l1 6.37a298.87 298.87 0 01-48.93 4.09zm73.4-16.21c-2.11-34.45-1.68-70.09-1.26-104.55q.12-10 .23-20c.43-45 1.77-86.1 13.9-132.38l6.24 1.64c-11.94 45.56-13.26 86.19-13.69 130.8q-.09 9.95-.22 20c-.42 34.35-.86 69.86 1.24 104.08zm275.45-153.15C769 1231.85 712 1206.76 661.67 1178a762.32 762.32 0 01-66.73-42.86l3.75-5.26a751.46 751.46 0 0066.19 42.51c50 28.61 106.65 53.55 178.38 78.47zm24.55025057 8.35277257l5.82215963-2.77578046 26.10524692 54.7553804-5.82215964 2.77578046zM807.55 1401.86l-3.85-5.18c31.27-23.26 77.13-41.56 92.2-47.57 2.37-.95 4.62-1.85 5.05-2.07a3.14 3.14 0 00-1.5 2.17l3.17.56 2.39-2.18.76 2.91c-.4 1.78-.4 1.78-7.48 4.6-14.87 5.9-60.14 24-90.74 46.76zm11.08 31.88q-9.66 0-19.41-.12l.07-6.45c79.82.94 154.32-3.93 209.78-13.71l1.13 6.36c-51.32 9.05-118.75 13.92-191.57 13.92zm228.37-18.82l-6.45-.19c.17-5.81-1.46-33.88-3.63-62.56l6.43-.49c1.98 25.73 3.88 56.43 3.65 63.24zm-7.85873657-91.96277074l2.65324158-5.8790143 29.340383 13.24152654-2.65324157 5.8790143zM688.94 697.23c-33.55-30.92-57.77-74.38-61.31-85.68l6.16-1.94c2.51 8 24.67 50.74 59.53 82.87zm35.11 17.89l-5.95-2.53c9.21-21.67 18.36-40.8 27.21-59.31 23.73-49.62 44.22-92.48 48.85-152.72 5-65.06-9.16-148.56-44.56-262.76l6.16-1.91c36.15 116.58 50 198.36 44.84 265.16-4.73 61.45-25.46 104.81-49.47 155-8.82 18.46-17.94 37.53-27.08 59.07zM749.4 207l-1.68-6.23c11.85-3.19 25.25-8.19 39.44-13.48 26-9.7 55.48-20.69 89.57-26.51 31.09-5.31 60.43-8.39 88.8-11.37 56.67-6 110.2-11.58 172.73-33.68a138.29 138.29 0 0044.12-25.84l4.23 4.87a144.7 144.7 0 01-46.2 27.06c-63.24 22.35-117.14 28-174.2 34-28.28 3-57.51 6-88.39 11.31-33.49 5.72-62.67 16.6-88.4 26.2-14.34 5.31-27.88 10.36-40.02 13.67zm403.53 21.28l-5.43-3.49c31.86-49.57 48.94-106.82 57.65-146.12l6.3 1.39c-8.83 39.82-26.15 97.85-58.52 148.22zm-10.93 22.6l-1.16-6.35c12.45-2.29 41.53-15.93 53.11-26.22l4.29 4.82c-12.44 11.1-42.72 25.27-56.24 27.75zm-60 147.89l-4.12-5c44.42-36.8 117.65-131 134.56-180.58l6.1 2.09c-17.67 51.89-91.07 145.83-136.54 183.49zm-13.46 23.66l-.71-6.42c20.12-2.2 42.75-12.31 55-24.59l4.57 4.57c-13.4 13.42-37.07 24.01-58.86 26.44zm-49.12 118.23l-3.58-5.37c89.08-59.44 119.52-120.23 134.67-160.79l6 2.26c-32.23 86.44-93.68 134.93-137.09 163.9zm-95.18 123.83l-2.66-5.88c40.91-18.55 126-57.13 159.3-132l5.89 2.62c-34.25 77.11-120.89 116.38-162.53 135.26zm2.76 17.03a166.13 166.13 0 01-24.42-1.91l1-6.38c11.33 1.77 39.58 4.77 57.42-4.82l3 5.69c-10.74 5.78-24.65 7.42-37 7.42zM831.72 759l-1.5-6.28 9.59-2.27c54.37-12.82 122-28.77 149.42-89.51l5.88 2.65c-28.7 63.64-98.07 80-153.82 93.14zm311.17 521.31l-6.45-.07c.93-89.91-1.68-185.06-43.76-273.19-25.16-52.7-76.25-110.6-111.54-138.33-32.72-25.7-64.77-40.54-98.71-56.26-22.62-10.47-46-21.3-70.57-35.87l3.29-5.55c24.29 14.4 47.52 25.16 70 35.56 34.29 15.88 66.67 30.88 100 57 35.87 28.17 87.79 87 113.38 140.61 42.65 89.43 45.31 185.43 44.36 276.1z"/>
  <path d="M1166.33 1315.82a140.55 140.55 0 01-28.56-3.07l1.32-6.32c31.87 6.64 60.34 2 84.62-13.91 22.19-14.5 40.11-38.25 51.83-68.67 9.49-24.63 14.76-53.44 15.24-83.31a303 303 0 00-13.16-92.24 284.46 284.46 0 00-43.84-87.3 258.11 258.11 0 00-76.71-68.79l3.26-5.56a264.49 264.49 0 0178.67 70.48 290.8 290.8 0 0144.83 89.29c18.84 61.65 18 127.17-2.22 179.75-12.22 31.69-31 56.5-54.33 71.75a109.24 109.24 0 01-60.95 17.9z"/>
  <path d="M1138.26 1358.09a313.55 313.55 0 01-39-2.54l.8-6.41c62 7.8 113.11-2.74 151.81-31.34 33.7-24.9 57.27-63.65 68.17-112 7-31.24 8.68-66.58 4.78-102.21a370.91 370.91 0 00-26.36-102c-13.73-32.62-32.07-61.87-53-84.59-22.55-24.44-47.74-41.36-74.88-50.28l2-6.13c28.19 9.27 54.3 26.78 77.6 52 21.46 23.25 40.21 53.15 54.23 86.46a377.11 377.11 0 0126.82 103.79c4 36.34 2.29 72.41-4.89 104.33-11.25 49.94-35.67 90-70.64 115.83-31.55 23.34-70.96 35.09-117.44 35.09zM267.88 345.86l30.73 8.29-23.01 22 3.21-16.95-10.93-13.34zm5.91 94.77l28.74 13.7-26.6 17.49 6.21-16.09-8.35-15.1zm287.95-176.55l28.42 14.36-27 16.87 6.58-15.95-8-15.28zm-117.88 758.36l7.82 30.86-30.45-9.3 16.34-5.5 6.29-16.06zm18.95 378.32l-31.71-2.83 18.84-25.66-.22 17.25 13.09 11.24zm60.72 4.98l29.86 11.05-24.91 19.82 4.73-16.59-9.68-14.28zM562 1164.87l23.48-21.5 6.23 31.22-12.59-11.79-17.12 2.07zm271.21 67.8l19.86 24.88-31.57 4.11 12.62-11.77-.91-17.22zm69.07 67.31l-1.16 31.81-26.62-17.46 17.24-.7 10.54-13.65zm-77.75 99.82l-30.01 10.63 6.44-31.17 6.99 15.77 16.58 4.77zm170.1 4.01l30.01 10.64-24.64 20.16 4.5-16.65-9.87-14.15zm30.02-37.56l13.87-28.65 17.33 26.7-16.05-6.31-15.15 8.26zm38.22-54.87l17.52 26.58-31.81 1.23 13.63-10.57.66-17.24z"/>
  <path d="M1155.53 1262.81l-15.64 27.74-15.62-27.74 15.62 7.3 15.64-7.3zM847.61 768.12l-30.4-9.47 23.84-21.1-3.85 16.82 10.41 13.75zm327.83 116.06l-30.64-8.61 8.5 30.68 5.92-16.21 16.22-5.86zm11.46-30.12l-31.79 1.8 18.01 26.26.34-17.25 13.44-10.81zM603.45 307.72l-27.56 15.95.63-31.83 9.76 14.23 17.17 1.65zm10.17 281.94c-34.64-73.49-52.84-165-48.68-244.72l6.44.33c-4.1 78.74 13.87 169.07 48.08 241.64z"/>
  <path d="M623.51 565.5l-1.72 31.79-26.3-17.94 17.24-.39 10.78-13.46zm69.64 109.26l9.37 30.42-30.88-7.73 16.05-6.33 5.46-16.36zm47.6-422.05l7.01-31.05 22.94 22.08-17.07-2.5-12.88 11.47zm423.89-165.39l31.35-5.52-11.51 29.68-4.28-16.71-15.56-7.45zM999.2 561.1a44.14 44.14 0 01-4.79-.24l.68-6.42c23.28 2.46 61-17.51 61.4-17.71l3 5.7c-1.49.81-35.29 18.67-60.29 18.67zm172.17-338.6l-28.43 14.33 2.47-31.74 8.92 14.77 17.04 2.64zm2.38-5.21l31.72-2.7-14.11 28.53-2.78-17.02-14.83-8.81zm-73.58 179.31l-30.29 9.77 7.32-30.98 6.54 15.96 16.43 5.25zm7.48-7.76l30.95-7.45-9.65 30.34-5.31-16.42-15.99-6.47zm-69.04 152.97l-31.77 1.94 14.79-28.19 2.37 17.08 14.61 9.17z"/>
  <path d="M1040.07 531.37l31.84-.11-16.4 27.29-1.37-17.2-14.07-9.98zm-95.3 135.93l-31.82-1.03 17.36-26.68.76 17.23 13.7 10.48zm.8-4.34l31.83-.48-16.08 27.48-1.57-17.18-14.18-9.82zm98.94 629.89l-6.12-2c17.61-52.64 23.52-99.82 17.58-140.23-5.07-34.42-18.58-61.79-39.07-79.17-24.07-20.41-54.77-24-82.11-9.46-22.29 11.79-40.11 34.14-51.53 64.63-13.37 35.64-17.34 80-11.81 131.71l-6.45.67c-5.64-52.76-1.54-98.07 12.18-134.67 12-32 30.86-55.52 54.56-68.07 29.76-15.76 63.15-11.93 89.3 10.25 21.71 18.4 36 47.16 41.28 83.15 6.12 41.39.12 89.58-17.81 143.19z"/>
  <path d="M1061.74 1280.38l-23.85 21.1-5.7-31.32 12.39 12.01 17.16-1.79zm-584.21-240.33l-4.75-4.37c9.6-10.45 34.68-44.12 60.89-96.8 30.24-60.77 71-164.79 93.2-315.22l6.39 1c-22.4 151.46-63.47 256.24-94 317.48-33.12 66.48-60.58 96.66-61.73 97.91z"/>
  <path d="M497.44 1033.56l-28.39 14.4 2.38-31.74 8.96 14.74 17.05 2.6zM312.78 444.65c-5.57-18.61-6.43-44.07-2.29-68.1l6.36 1.09c-4 23.1-3.18 47.46 2.11 65.16z"/>
  <path d="M296.5 393.74l17.69-26.46 13.48 28.84-15.04-8.47-16.13 6.09zm88.63-63.26c-.26 6-.89 7.93-2.4 13.21-2 7.13-5.28 14.45-11.54 18.41-1.58 1-3.49 1.77-5.28 1.27s-2.87-2.27-4.06-3.73c-14.93-18.35 14.72-12.44 23.28-29.16z"/>
</svg>
